<?xml version="1.0" encoding="UTF-8" standalone="no"?>
<!-- Created with Inkscape (http://www.inkscape.org/) -->

<svg
   version="1.1"
   id="svg1"
   width="581.68359"
   height="848.3634"
   viewBox="0 0 581.68359 848.3634"
   sodipodi:docname="nightowlnl_flower_vector.svg"
   xml:space="preserve"
   inkscape:version="1.3.2 (091e20e, 2023-11-25, custom)"
   xmlns:inkscape="http://www.inkscape.org/namespaces/inkscape"
   xmlns:sodipodi="http://sodipodi.sourceforge.net/DTD/sodipodi-0.dtd"
   xmlns="http://www.w3.org/2000/svg"
   xmlns:svg="http://www.w3.org/2000/svg"><defs
     id="defs1"><clipPath
       clipPathUnits="userSpaceOnUse"
       id="clipPath26"><path
         d="M 0,2239.37 H 8617.323 V 0 H 0 Z"
         transform="translate(-6020.9187,-1488.3701)"
         id="path26" /></clipPath></defs><sodipodi:namedview
     id="namedview1"
     pagecolor="#505050"
     bordercolor="#ffffff"
     borderopacity="1"
     inkscape:showpageshadow="0"
     inkscape:pageopacity="0"
     inkscape:pagecheckerboard="1"
     inkscape:deskcolor="#505050"
     showgrid="false"
     inkscape:zoom="0.043347568"
     inkscape:cx="6274.8618"
     inkscape:cy="1511.0421"
     inkscape:window-width="1920"
     inkscape:window-height="1129"
     inkscape:window-x="3832"
     inkscape:window-y="-8"
     inkscape:window-maximized="1"
     inkscape:current-layer="g417" /><g
     inkscape:groupmode="layer"
     id="layer2"
     inkscape:label="2026"
     style="display:inline"
     transform="translate(-8815.9561,-1932.0807)"><g
       inkscape:groupmode="layer"
       id="g417"
       inkscape:label="Flower Right"
       style="display:inline"><path
         style="display:inline;fill:#009600;fill-opacity:1;stroke:#007000;stroke-width:15.1181;stroke-linecap:round;stroke-linejoin:miter;stroke-miterlimit:0;stroke-dasharray:none;stroke-opacity:1;paint-order:stroke fill markers"
         d="m 9126.8383,2652.8187 -20.3906,-409.8513 30.5859,-2.0391 22.4297,418.0076 -12.2344,120.3046 z"
         id="path405" /><path
         style="display:inline;fill:#ffff00;fill-opacity:1;stroke:#ff7000;stroke-width:15.1181;stroke-linecap:round;stroke-linejoin:miter;stroke-miterlimit:0;stroke-dasharray:none;stroke-opacity:1;paint-order:stroke fill markers"
         d="m 9109.5063,2168.5417 -11.2149,82.5819 c -7.5808,24.4161 -27.3646,45.1551 -61.1718,32.625 -20.2577,-20.7542 -8.8344,-38.8684 -8.0114,-57.8659 l 47.8968,-68.1848 -61.1718,62.1914 c -18.6856,10.4143 -32.8623,31.6867 -69.4518,-4.4492 -29.5818,-49.623 -9.9929,-60.2084 17.332,-71.3672 l 93.7968,-15.2929 -89.7187,1.0195 c -24.393,-2.5429 -55.3749,-4.7538 -52.1198,-58.9066 13.2541,-38.7417 37.7717,-42.2509 66.3932,-34.8902 l 87.6797,59.1327 -72.3867,-73.4062 c -6.5264,-19.3711 -3.402,-38.7421 11.2148,-58.1132 30.2299,-23.5593 55.7221,-25.0072 74.4258,7.1367 l 20.3906,108.0703 -6.1172,-103.9922 c 13.3541,-24.4396 30.0693,-38.7959 53.0156,-34.4591 34.7286,2.2123 45.3097,35.2743 39.7617,52.8107 l -45.8789,87.6796 63.2109,-80.5429 c 22.5418,-20.4153 45.8846,-24.0084 70.3476,-4.0781 26.3696,22.4297 21.7525,44.8593 4.0782,67.289 l -102.9726,47.9179 107.0507,-36.7031 c 21.7277,1.8868 43.5559,3.4384 54.0351,42.8203 11.8439,35.6257 -3.0361,50.1536 -27.5273,57.0937 -44.8594,-1.0179 -89.7187,-24.4434 -134.5781,-36.7031 l 99.914,46.8984 c 36.6938,21.5245 26.582,48.2496 12.2344,75.4453 -36.4278,32.426 -47.8482,10.2904 -64.2304,-1.0195 l -66.2695,-97.875 32.625,96.8555 c 6.4907,20.9526 0.096,44.7734 -26.5078,58.1132 -34.1765,2.9143 -60.7008,-20.8485 -60.1523,-60.1523 z"
         id="path406"
         sodipodi:nodetypes="ccccccccccccccccccccccccccccccccccccc" /><path
         style="display:inline;fill:none;fill-opacity:1;stroke:#f97000;stroke-width:15.1181;stroke-linecap:round;stroke-linejoin:miter;stroke-miterlimit:0;stroke-dasharray:none;stroke-opacity:1;paint-order:stroke fill markers"
         d="m 9164.2437,2092.4723 79.3009,-62.7198"
         id="path407" /><path
         style="display:inline;fill:none;fill-opacity:1;stroke:#f97000;stroke-width:15.1181;stroke-linecap:round;stroke-linejoin:miter;stroke-miterlimit:0;stroke-dasharray:none;stroke-opacity:1;paint-order:stroke fill markers"
         d="m 9175.0575,2125.6345 124.7186,-2.8837"
         id="path408" /><path
         style="display:inline;fill:none;fill-opacity:1;stroke:#f97000;stroke-width:15.1181;stroke-linecap:round;stroke-linejoin:miter;stroke-miterlimit:0;stroke-dasharray:none;stroke-opacity:1;paint-order:stroke fill markers"
         d="m 9164.2437,2147.9829 96.6029,74.2544"
         id="path409" /><path
         style="display:inline;fill:none;fill-opacity:1;stroke:#f97000;stroke-width:15.1181;stroke-linecap:round;stroke-linejoin:miter;stroke-miterlimit:0;stroke-dasharray:none;stroke-opacity:1;paint-order:stroke fill markers"
         d="m 9126.0351,2166.7267 21.6275,102.3702"
         id="path410" /><path
         style="display:inline;fill:none;fill-opacity:1;stroke:#f97000;stroke-width:15.1181;stroke-linecap:round;stroke-linejoin:miter;stroke-miterlimit:0;stroke-dasharray:none;stroke-opacity:1;paint-order:stroke fill markers"
         d="m 9088.5474,2163.8431 -23.7902,94.4401"
         id="path411" /><path
         style="display:inline;fill:none;fill-opacity:1;stroke:#f97000;stroke-width:15.1181;stroke-linecap:round;stroke-linejoin:miter;stroke-miterlimit:0;stroke-dasharray:none;stroke-opacity:1;paint-order:stroke fill markers"
         d="m 9065.4781,2140.7737 c -27.3949,6.4883 -77.1382,40.3714 -77.1382,40.3714"
         id="path412" /><path
         style="display:inline;fill:none;fill-opacity:1;stroke:#f97000;stroke-width:15.1181;stroke-linecap:round;stroke-linejoin:miter;stroke-miterlimit:0;stroke-dasharray:none;stroke-opacity:1;paint-order:stroke fill markers"
         d="m 9059.7107,2114.0998 -103.812,-36.0459"
         id="path413" /><path
         style="display:inline;fill:none;fill-opacity:1;stroke:#f97000;stroke-width:15.1181;stroke-linecap:round;stroke-linejoin:miter;stroke-miterlimit:0;stroke-dasharray:none;stroke-opacity:1;paint-order:stroke fill markers"
         d="m 9083.501,2085.984 c -2.8837,-30.2785 -41.8132,-96.6029 -41.8132,-96.6029"
         id="path414" /><path
         style="display:inline;fill:none;fill-opacity:1;stroke:#f97000;stroke-width:15.1181;stroke-linecap:round;stroke-linejoin:miter;stroke-miterlimit:0;stroke-dasharray:none;stroke-opacity:1;paint-order:stroke fill markers"
         d="m 9132.5234,2080.9376 11.5346,-102.3702"
         id="path415" /><ellipse
         style="display:inline;fill:#ffff00;fill-opacity:1;stroke:#ff7000;stroke-width:33.8035;stroke-linecap:round;stroke-linejoin:miter;stroke-miterlimit:0;stroke-dasharray:none;stroke-opacity:1;paint-order:stroke fill markers"
         id="ellipse415"
         cx="9122.8584"
         cy="2116.5352"
         rx="76.016106"
         ry="63.39566" /><path
         style="display:inline;fill:none;fill-opacity:1;stroke:#f97000;stroke-width:22.6772;stroke-linecap:round;stroke-linejoin:miter;stroke-miterlimit:0;stroke-dasharray:none;stroke-opacity:1;paint-order:stroke fill markers"
         d="m 9078.4546,2133.5645 c 48.8541,45.6339 73.499,18.6405 95.8819,-15.1392"
         id="path416"
         sodipodi:nodetypes="cc" /><ellipse
         style="display:inline;fill:#f99800;fill-opacity:1;stroke:#f97000;stroke-width:22.6772;stroke-linecap:round;stroke-linejoin:miter;stroke-miterlimit:0;stroke-dasharray:none;stroke-opacity:1;paint-order:stroke fill markers"
         id="ellipse416"
         cx="9096.8379"
         cy="2092.8328"
         rx="6.848712"
         ry="7.5696287" /><ellipse
         style="display:inline;fill:#f99800;fill-opacity:1;stroke:#f97000;stroke-width:22.6772;stroke-linecap:round;stroke-linejoin:miter;stroke-miterlimit:0;stroke-dasharray:none;stroke-opacity:1;paint-order:stroke fill markers"
         id="ellipse417"
         cx="9145.5"
         cy="2084.5422"
         rx="10.092838"
         ry="8.6510048" /></g><g
       inkscape:groupmode="layer"
       id="g404"
       inkscape:label="leaves Right"
       style="display:inline"><path
         style="display:inline;fill:#00ff00;fill-opacity:1;stroke:#007000;stroke-width:22.6772;stroke-linecap:round;stroke-linejoin:miter;stroke-miterlimit:0;stroke-dasharray:none;stroke-opacity:1;paint-order:stroke fill markers"
         d="m 9118.4761,2422.4086 c -64.6602,34.8104 -114.911,83.0011 -214.8333,85.0682 -121.141,-6.2127 -75.6857,-113.1271 -17.302,-125.4396 90.8703,-23.1638 159.3187,14.5321 232.1353,40.3714 z"
         id="path401"
         sodipodi:nodetypes="cccc" /><path
         style="display:inline;fill:#00ff00;fill-opacity:1;stroke:#007000;stroke-width:22.6772;stroke-linecap:round;stroke-linejoin:miter;stroke-miterlimit:0;stroke-dasharray:none;stroke-opacity:1;paint-order:stroke fill markers"
         d="m 9134.3362,2379.1535 c 44.9,-39.1145 93.7372,-75.6042 178.7875,-87.9518 62.4081,-16.5412 117.001,85.6309 21.6275,109.5793 -59.3918,25.4087 -127.4539,12.6686 -200.415,-21.6275 z"
         id="path402"
         sodipodi:nodetypes="cccc" /><path
         style="display:inline;fill:none;fill-opacity:1;stroke:#007000;stroke-width:15.1181;stroke-linecap:round;stroke-linejoin:miter;stroke-miterlimit:0;stroke-dasharray:none;stroke-opacity:1;paint-order:stroke fill markers"
         d="m 9116.1172,2423.8504 c -102.9086,36.9064 -152.192,-45.8072 -231.2182,34.604"
         id="path403"
         sodipodi:nodetypes="cc" /><path
         style="display:inline;fill:none;fill-opacity:1;stroke:#007000;stroke-width:15.1181;stroke-linecap:round;stroke-linejoin:miter;stroke-miterlimit:0;stroke-dasharray:none;stroke-opacity:1;paint-order:stroke fill markers"
         d="m 9132.8944,2379.1535 c 160.2486,-52.384 180.6363,30.6401 209.0659,-46.1387"
         id="path404"
         sodipodi:nodetypes="cc" /></g></g><style
     type="text/css"
     id="style1">
	.st0{fill:#FFFFFF;}
</style></svg>
