<?xml version="1.0" encoding="UTF-8" standalone="no"?>
<!-- Created with Inkscape (http://www.inkscape.org/) -->

<svg
   width="68.323143mm"
   height="70.767845mm"
   viewBox="0 0 68.323142 70.767846"
   version="1.1"
   id="svg1"
   xml:space="preserve"
   inkscape:version="1.3.2 (091e20e, 2023-11-25, custom)"
   sodipodi:docname="nightowlnl_tick_vector.svg"
   xmlns:inkscape="http://www.inkscape.org/namespaces/inkscape"
   xmlns:sodipodi="http://sodipodi.sourceforge.net/DTD/sodipodi-0.dtd"
   xmlns="http://www.w3.org/2000/svg"
   xmlns:svg="http://www.w3.org/2000/svg"><sodipodi:namedview
     id="namedview1"
     pagecolor="#505050"
     bordercolor="#ffffff"
     borderopacity="1"
     inkscape:showpageshadow="0"
     inkscape:pageopacity="0"
     inkscape:pagecheckerboard="true"
     inkscape:deskcolor="#505050"
     inkscape:document-units="mm"
     inkscape:zoom="3.7336692"
     inkscape:cx="91.331069"
     inkscape:cy="117.98046"
     inkscape:window-width="1920"
     inkscape:window-height="1129"
     inkscape:window-x="3832"
     inkscape:window-y="-8"
     inkscape:window-maximized="1"
     inkscape:current-layer="layer4"
     showgrid="false"
     showguides="true"
     showborder="true" /><defs
     id="defs1" /><g
     inkscape:groupmode="layer"
     id="layer4"
     inkscape:label="Tick"
     transform="translate(-15.1689,-3.613328)"><path
       style="fill:#ffffff;fill-opacity:1;stroke:#000000;stroke-width:2;stroke-linecap:round;stroke-miterlimit:0;stroke-dasharray:none;stroke-opacity:1;paint-order:fill markers stroke"
       d="m 42.178457,28.569935 c 3.632038,-5.159604 4.91415,-10.557501 5.717762,-18.540403 0.07661,4.562701 2.477577,13.898121 5.821625,18.460822"
       id="path5"
       sodipodi:nodetypes="ccc"
       transform="rotate(-52.999999,47.756022,36.327399)" /><path
       style="fill:#ffffff;fill-opacity:1;stroke:#000000;stroke-width:2;stroke-linecap:round;stroke-miterlimit:0;stroke-dasharray:none;stroke-opacity:1;paint-order:fill markers stroke"
       d="m 41.621381,32.151124 c -1.310538,-0.78207 0.0055,-2.070832 0.477493,-3.382234 0.457271,-1.336718 5.325212,-3.143877 5.570739,1.989549 l -0.358118,4.774921"
       id="path3"
       sodipodi:nodetypes="cccc"
       transform="rotate(-52.999999,47.756022,36.327399)" /><path
       style="fill:#ffffff;fill-opacity:1;stroke:#000000;stroke-width:2;stroke-linecap:round;stroke-miterlimit:0;stroke-dasharray:none;stroke-opacity:1;paint-order:fill markers stroke"
       d="m 47.788986,35.413987 0.397912,-4.695339 c 0.800274,-1.23267 1.214413,-3.801041 4.695336,-2.665995 1.656195,0.644169 1.760676,2.899807 1.989551,4.257636"
       id="path4"
       sodipodi:nodetypes="cccc"
       transform="rotate(-52.999999,47.756022,36.327399)" /><path
       style="fill:#ffffff;fill-opacity:1;stroke:#000000;stroke-width:2.01117;stroke-linecap:round;stroke-miterlimit:0;stroke-dasharray:none;stroke-opacity:1;paint-order:fill markers stroke"
       d="m 41.009055,31.302047 c -6.127971,7.9996 -7.4264,18.527918 -2.023772,29.84978 3.150586,4.610948 7.457887,6.273771 12.896189,1.106395 7.83728,-8.880759 7.635902,-19.211407 2.905617,-30.212066 -4.358132,5.193923 -9.120096,5.288839 -13.778034,-0.744109 z"
       id="path1"
       sodipodi:nodetypes="ccccc"
       transform="rotate(-52.999999,47.756022,36.327399)" /><path
       style="fill:none;fill-opacity:1;stroke:#000000;stroke-width:2;stroke-linecap:round;stroke-miterlimit:0;stroke-dasharray:none;stroke-opacity:1;paint-order:fill markers stroke"
       d="m 37.503931,37.292494 c -2.082472,17.325899 22.926579,12.55505 19.411346,0.81396"
       id="path2"
       sodipodi:nodetypes="cc"
       transform="rotate(-52.999999,47.756022,36.327399)" /><ellipse
       style="fill:#000000;fill-opacity:1;stroke:#000000;stroke-width:1.411;stroke-linecap:round;stroke-miterlimit:0;stroke-opacity:1;paint-order:fill markers stroke"
       id="path9"
       cx="44.486336"
       cy="30.479904"
       rx="0.95498395"
       ry="0.79581994"
       transform="rotate(-52.999999,47.756022,36.327399)" /><ellipse
       style="fill:none;fill-opacity:1;stroke:#000000;stroke-width:1.411;stroke-linecap:round;stroke-miterlimit:0;stroke-opacity:1;paint-order:fill markers stroke"
       id="path10"
       cx="51.489552"
       cy="30.360529"
       rx="0.63665599"
       ry="0.67644697"
       transform="rotate(-52.999999,47.756022,36.327399)" /><path
       style="fill:none;fill-opacity:1;stroke:#000000;stroke-width:2;stroke-linecap:round;stroke-miterlimit:0;stroke-dasharray:none;stroke-opacity:1;paint-order:fill markers stroke"
       d="M 56.952997,35.096853 C 69.221886,34.728632 60.203907,15.592351 70.245579,13.474677"
       id="path11"
       sodipodi:nodetypes="cc"
       transform="rotate(-52.999999,47.756022,36.327399)" /><path
       style="fill:none;fill-opacity:1;stroke:#000000;stroke-width:2;stroke-linecap:round;stroke-miterlimit:0;stroke-dasharray:none;stroke-opacity:1;paint-order:fill markers stroke"
       d="M 58.254018,44.486334 C 69.76518,50.973 67.94404,34.956868 79.50241,44.725079"
       id="path12"
       sodipodi:nodetypes="cc"
       transform="rotate(-52.999999,47.756022,36.327399)" /><path
       style="fill:none;fill-opacity:1;stroke:#000000;stroke-width:2;stroke-linecap:round;stroke-miterlimit:0;stroke-dasharray:none;stroke-opacity:1;paint-order:fill markers stroke"
       d="m 57.537781,39.393087 c 10.420585,2.768141 12.614191,-8.477479 22.282956,-4.138263"
       id="path13"
       sodipodi:nodetypes="cc"
       transform="rotate(-52.999999,47.756022,36.327399)" /><path
       style="fill:none;fill-opacity:1;stroke:#000000;stroke-width:2;stroke-linecap:round;stroke-miterlimit:0;stroke-dasharray:none;stroke-opacity:1;paint-order:fill markers stroke"
       d="m 58.015271,49.102089 c 6.370274,10.217994 11.499611,-5.845114 19.418007,8.356109"
       id="path14"
       sodipodi:nodetypes="cc"
       transform="rotate(-52.999999,47.756022,36.327399)" /><path
       style="fill:none;fill-opacity:1;stroke:#000000;stroke-width:2;stroke-linecap:round;stroke-miterlimit:0;stroke-dasharray:none;stroke-opacity:1;paint-order:fill markers stroke"
       d="M 35.57315,49.261254 C 25.77234,62.680586 23.729923,36.07033 14.404341,53.638264"
       id="path15"
       sodipodi:nodetypes="cc"
       transform="rotate(-52.999999,47.756022,36.327399)" /><path
       style="fill:none;fill-opacity:1;stroke:#000000;stroke-width:2;stroke-linecap:round;stroke-miterlimit:0;stroke-dasharray:none;stroke-opacity:1;paint-order:fill markers stroke"
       d="M 35.573152,43.133441 C 26.203308,49.278672 21.208373,30.083239 13.688103,45.361736"
       id="path16"
       sodipodi:nodetypes="cc"
       transform="rotate(-52.999999,47.756022,36.327399)" /><path
       style="fill:none;fill-opacity:1;stroke:#000000;stroke-width:2;stroke-linecap:round;stroke-miterlimit:0;stroke-dasharray:none;stroke-opacity:1;paint-order:fill markers stroke"
       d="M 37.483118,37.244371 C 27.173318,42.218829 28.469935,28.234634 14.881833,34.29984"
       id="path17"
       sodipodi:nodetypes="cc"
       transform="rotate(-52.999999,47.756022,36.327399)" /><path
       style="fill:none;fill-opacity:1;stroke:#000000;stroke-width:2;stroke-linecap:round;stroke-miterlimit:0;stroke-dasharray:none;stroke-opacity:1;paint-order:fill markers stroke"
       d="M 38.47342,33.709131 C 31.641001,30.512231 38.233367,13.156173 25.899535,13.246082"
       id="path18"
       sodipodi:nodetypes="cc"
       transform="rotate(-52.999999,47.756022,36.327399)" /><path
       style="fill:#000000;stroke:#000000;stroke-width:3;stroke-linecap:round;stroke-miterlimit:0;stroke-dasharray:none;paint-order:fill markers stroke"
       d="M 46.600932,49.206575 45.398327,64.940653"
       id="path6"
       transform="rotate(-52.999999,47.756022,36.327399)" /></g></svg>
